<svg xmlns="http://www.w3.org/2000/svg" viewBox="0 0 64 64">
  <defs>
    <linearGradient id="upper" x1="0" y1="0" x2="1" y2="1"><stop stop-color="#314FFF"/><stop offset=".58" stop-color="#4261FF"/><stop offset="1" stop-color="#3155FA"/></linearGradient>
    <linearGradient id="return" x1="0" y1="0" x2="1" y2=".95"><stop stop-color="#1835CF"/><stop offset=".48" stop-color="#304BF2"/><stop offset="1" stop-color="#4261FF"/></linearGradient>
    <linearGradient id="lower" x1="0" y1="0" x2=".95" y2=".85"><stop stop-color="#3155FA"/><stop offset=".58" stop-color="#4261FF"/><stop offset="1" stop-color="#2866F9"/></linearGradient>
  </defs>
  <rect width="64" height="64" rx="14" fill="#fff"/>
  <g transform="translate(12 8) scale(.1041667)">
    <path fill="url(#upper)" d="M0 282v-59c0-65 43-111 116-135 57-19 135-27 194-49C343 27 366 14 384 0v66c0 66-43 84-117 102l-112 27C90 212 38 241 0 282Z"/>
    <path fill="url(#return)" d="M0 354c0-39 42-71 128-93v120c0 40-25 68-64 68C24 449 0 419 0 380v-26Z"/>
    <path fill="url(#lower)" d="M0 369c0-68 47-119 124-145 65-22 152-28 215-67v52c0 67-40 99-107 119l-103 30C60 377 27 396 12 416 4 409 0 394 0 380v-11Z"/>
  </g>
</svg>
